<?xml version="1.0" standalone="no"?>
<!DOCTYPE svg PUBLIC "-//W3C//DTD SVG 20010904//EN"
 "http://www.w3.org/TR/2001/REC-SVG-20010904/DTD/svg10.dtd">
<svg version="1.0" xmlns="http://www.w3.org/2000/svg"
 width="500.000000pt" height="500.000000pt" viewBox="0 0 500.000000 500.000000"
 preserveAspectRatio="xMidYMid meet">

<g transform="translate(0.000000,500.000000) scale(0.100000,-0.100000)"
fill="#000000" stroke="none">
<path d="M2415 3583 c-27 -10 -61 -26 -74 -35 -32 -23 -303 -290 -1048 -1031
-468 -465 -628 -630 -645 -665 -29 -61 -35 -154 -14 -219 53 -159 236 -264
387 -220 30 9 69 27 87 41 18 13 279 268 580 567 301 299 609 604 684 677
l137 134 153 -155 c1011 -1019 1233 -1239 1271 -1259 62 -34 192 -33 262 2 95
47 176 157 190 262 9 57 -13 138 -52 195 -15 22 -388 404 -827 847 -708 714
-806 810 -860 836 -80 39 -162 47 -231 23z m130 -164 c33 -9 80 -52 269 -243
125 -127 452 -456 725 -731 273 -275 536 -541 584 -592 86 -91 87 -93 87 -143
0 -43 -5 -55 -36 -89 -19 -22 -51 -45 -71 -52 -78 -25 -54 -46 -829 736 -399
403 -728 728 -741 731 -44 12 -77 -8 -162 -95 -47 -48 -373 -371 -723 -719
-708 -701 -676 -674 -762 -632 -78 37 -115 124 -82 188 24 46 1623 1625 1659
1639 40 15 35 15 82 2z"/>
</g>
</svg>
