<?xml version="1.0" standalone="no"?>
<!DOCTYPE svg PUBLIC "-//W3C//DTD SVG 20010904//EN"
 "http://www.w3.org/TR/2001/REC-SVG-20010904/DTD/svg10.dtd">
<svg version="1.0" xmlns="http://www.w3.org/2000/svg"
 width="512.000000pt" height="512.000000pt" viewBox="0 0 512.000000 512.000000"
 preserveAspectRatio="xMidYMid meet">

<g transform="translate(0.000000,512.000000) scale(0.100000,-0.100000)"
fill="#000000" stroke="none">
<path d="M3660 4085 c-509 -552 -916 -1001 -918 -1013 -2 -12 -6 -22 -8 -22
-3 0 -451 441 -996 980 -1093 1080 -1009 1007 -1090 957 -21 -12 -175 -166
-343 -342 l-304 -319 20 -22 c29 -31 74 -48 106 -39 18 4 109 87 254 231 l225
224 22 -23 22 -24 -211 -217 -212 -217 26 -27 27 -27 215 215 214 214 26 -24
26 -24 -216 -216 -216 -216 32 -29 31 -30 214 220 213 220 25 -25 25 -25 -213
-220 -214 -220 26 -28 26 -28 218 218 c215 215 217 217 238 198 11 -10 20 -23
20 -29 0 -6 -96 -106 -212 -223 l-213 -213 31 -30 30 -31 214 221 213 221 21
-20 20 -21 -64 -67 c-36 -38 -132 -137 -215 -220 l-150 -153 28 -27 27 -28
218 218 218 218 24 -26 24 -26 -217 -217 -218 -218 32 -29 31 -30 213 220 214
220 28 -28 28 -27 -218 -218 -218 -218 30 -28 30 -29 215 219 214 219 26 -25
27 -24 -216 -216 -216 -216 32 -29 31 -30 213 217 212 217 23 -24 23 -24 -51
-58 c-28 -32 -123 -130 -211 -218 l-161 -159 27 -28 27 -29 216 216 216 216
24 -26 24 -26 -214 -214 -215 -215 31 -31 31 -30 212 218 c177 183 214 216
228 207 9 -6 19 -16 21 -23 2 -7 -92 -109 -209 -226 l-213 -215 28 -29 29 -30
215 220 215 220 26 -25 26 -26 -218 -218 -218 -218 32 -29 31 -30 214 219 215
220 22 -22 22 -22 -218 -218 -218 -218 30 -28 30 -29 215 219 214 219 26 -25
27 -24 -218 -218 -218 -218 31 -31 31 -30 215 220 215 221 23 -25 23 -25 -23
-27 c-14 -16 -110 -114 -214 -220 l-190 -192 24 -26 c13 -14 27 -25 30 -25 4
0 103 97 221 215 l213 215 25 -25 26 -25 -215 -215 c-212 -212 -214 -214 -195
-235 10 -11 16 -22 14 -24 -9 -9 -145 -37 -257 -52 -157 -21 -486 -21 -602 0
-183 34 -330 13 -495 -68 -202 -100 -363 -297 -421 -516 -21 -81 -24 -254 -5
-330 80 -321 383 -514 721 -459 152 24 281 89 420 212 64 55 1240 1133 1402
1285 25 23 28 23 34 8 5 -14 -42 -67 -207 -232 l-213 -213 29 -31 29 -30 -50
-53 c-28 -28 -203 -214 -389 -412 -187 -198 -394 -416 -460 -486 -203 -209
-275 -363 -276 -589 0 -275 138 -482 391 -584 72 -30 81 -31 225 -31 132 0
159 3 220 24 210 71 375 210 474 399 79 154 104 304 75 467 -22 125 -22 409 0
576 29 224 92 455 170 624 26 55 56 95 143 185 l111 115 193 -190 c107 -104
552 -544 990 -977 559 -553 803 -788 818 -788 76 0 201 118 201 189 0 13 -360
375 -1035 1042 l-1035 1023 17 25 c9 14 237 350 508 746 954 1397 977 1433
992 1498 8 33 13 62 11 66 -2 4 -415 -439 -918 -984z m-614 -1019 c28 -28 34
-42 34 -76 0 -34 -6 -48 -34 -76 -28 -28 -42 -34 -76 -34 -35 0 -48 6 -77 35
-33 33 -35 39 -30 82 11 100 114 138 183 69z m-721 -46 c19 -21 17 -23 -145
-185 -131 -131 -173 -168 -209 -180 -24 -8 -49 -15 -54 -15 -5 0 78 90 184
200 106 110 196 200 199 200 4 0 15 -9 25 -20z m104 -104 l22 -24 -35 -29
c-35 -29 -185 -113 -202 -113 -5 0 34 43 86 95 52 52 97 95 101 95 3 0 16 -11
28 -24z m-1507 -547 c128 -27 244 -122 289 -236 33 -84 33 -252 0 -338 -66
-167 -195 -294 -366 -361 -40 -15 -75 -19 -170 -19 -116 0 -123 1 -186 32
-133 66 -208 181 -217 332 -9 167 43 298 167 422 145 144 316 203 483 168z
m1128 -1178 c80 -30 162 -106 202 -189 32 -64 33 -71 33 -187 0 -101 -4 -129
-23 -178 -81 -210 -279 -365 -489 -384 -136 -11 -252 27 -337 113 -188 187
-141 523 101 725 56 47 173 106 235 119 71 15 216 5 278 -19z"/>
<path d="M5029 4625 c-47 -12 -134 -67 -530 -336 -261 -177 -488 -332 -505
-345 -17 -12 -122 -157 -234 -321 -112 -164 -247 -361 -299 -437 -52 -77 -89
-136 -81 -131 13 8 1540 1406 1667 1527 34 32 56 58 50 57 -7 0 -37 -7 -68
-14z"/>
</g>
</svg>
